# xmcd CD database file
# Copyright (C) 1993-1996 Ti Kan
#
# Track frame offsets:
#	183
#	11658
#	42408
#	67758
#	99633
#	114933
#	126858
#	146583
#	161958
#	183383
#	210633
#	227208
#	250908
#	268608
#
# Disc length: 4021 seconds
#
# Revision: 1
# Processed by: cddbd v1.4b41PL1 Copyright (c) Steve Scherf et al.
# Submitted via: CDValet v3.30 - Copyright (c) 1997 Greg Leichner
#
DISCID=c60fb30e
DTITLE=Cuby and Blizzards - Appleknockers Flophouse/To Blind To S
DTITLE=ee
DYEAR=1900
DGENRE=
TTITLE0=Appleknockers Flophouse
TTITLE1=Unknown Boy
TTITLE2=Help Me
TTITLE3=Go Down Sunshine
TTITLE4=Disappointed Blues
TTITLE5=Midnight Mover
TTITLE6=Black Snake
TTITLE7=Thursday Night
TTITLE8=Night Train
TTITLE9=Evil Woman
TTITLE10=Wee Wee Baby
TTITLE11=Too Blind To See
TTITLE12=Bird's Works
TTITLE13=Time Passed Me By
EXTD=Harry "Cuby" Muskee: Vocals, Harmonica\nEelco Gelling: Ele
EXTD=ctric and Acoustic Guitar\nHelmig Van Der Vegt: Piano, Organ
EXTD=\nHerman Deinum: Bass Guitar\nHans Lafaille: Drums
EXTT0=
EXTT1=
EXTT2=
EXTT3=
EXTT4=
EXTT5=
EXTT6=
EXTT7=
EXTT8=
EXTT9=
EXTT10=
EXTT11=
EXTT12=
EXTT13=
PLAYORDER=
